<svg version="1.1" xmlns="http://www.w3.org/2000/svg" x="0px" y="0px" viewBox="0 0 1200 1200">
  <g id="layer1">
    <g>
      <path d="M748.18,338H152.1c-23.16,0-42.1,20.28-42.1,45.06v343.88c0,24.78,18.95,45.06,42.1,45.06h596.08
        c23.16,0,42.1-20.28,42.1-45.06V383.06C790.28,358.28,771.34,338,748.18,338z M748.18,719.82H152.1V383.06h596.08V719.82z"/>
      <path d="M555.4,795.71H351.53c-14.63,0-26.59,12.81-26.59,28.46v2.37c0,15.65,11.97,28.46,26.59,28.46H555.4
        c14.63,0,26.59-12.81,26.59-28.46v-2.37C581.99,808.52,570.02,795.71,555.4,795.71z"/>
    </g>
  </g>
</svg>
