<svg id="splashSVG" version="1.1" xmlns="http://www.w3.org/2000/svg" x="0px" y="0px" viewBox="0 0 850 600">
  <g id="fill">
    <rect x="-0.5" y="0.5" class="st0" width="850" height="20"/>
    <rect x="-0.5" y="20.5" class="st1" width="850" height="46"/>
    <rect x="-0.5" y="65.5" class="st1" width="850" height="34"/>
    <rect x="-0.5" y="99.5" class="st2" width="189" height="500"/>
    <rect x="188.5" y="99.5" class="st0" width="661" height="500"/>
  </g>
  <g id="text">
    <rect x="212" y="226" class="st3" width="165" height="12"/>
    <rect x="212" y="240" class="st3" width="66" height="12"/>
    <rect x="430" y="226" class="st3" width="165" height="12"/>
    <rect x="430" y="240" class="st3" width="31" height="12"/>
    <rect x="649" y="226" class="st3" width="165" height="12"/>
    <rect x="649" y="240" class="st3" width="32" height="12"/>
    <rect x="212" y="405" class="st3" width="171" height="12"/>
    <rect x="432" y="405" class="st3" width="153" height="12"/>
    <rect x="650" y="405" class="st3" width="170" height="12"/>
    <rect x="212" y="583" class="st3" width="158" height="12"/>
    <rect x="432" y="583" class="st3" width="151" height="12"/>
    <rect x="650" y="583" class="st3" width="147" height="12"/>
    <path class="st4" d="M91.67,93H37.33C34.94,93,33,91.06,33,88.67V76.33c0-2.39,1.94-4.33,4.33-4.33h54.33
      c2.39,0,4.33,1.94,4.33,4.33v12.33C96,91.06,94.06,93,91.67,93z"/>
    <path class="st4" d="M142.17,93h-33.83c-2.39,0-4.33-1.94-4.33-4.33V76.33c0-2.39,1.94-4.33,4.33-4.33h33.83
      c2.39,0,4.33,1.94,4.33,4.33v12.33C146.5,91.06,144.56,93,142.17,93z"/>
    <path class="st4" d="M212.67,93h-54.33c-2.39,0-4.33-1.94-4.33-4.33V76.33c0-2.39,1.94-4.33,4.33-4.33h54.33
      c2.39,0,4.33,1.94,4.33,4.33v12.33C217,91.06,215.06,93,212.67,93z"/>
    <path class="st4" d="M363.67,93h-54.33c-2.39,0-4.33-1.94-4.33-4.33V76.33c0-2.39,1.94-4.33,4.33-4.33h54.33
      c2.39,0,4.33,1.94,4.33,4.33v12.33C368,91.06,366.06,93,363.67,93z"/>
    <path class="st4" d="M263.17,93h-33.83c-2.39,0-4.33-1.94-4.33-4.33V76.33c0-2.39,1.94-4.33,4.33-4.33h33.83
      c2.39,0,4.33,1.94,4.33,4.33v12.33C267.5,91.06,265.56,93,263.17,93z"/>
    <path class="st4" d="M292.17,93h-12.83c-2.39,0-4.33-1.94-4.33-4.33V76.33c0-2.39,1.94-4.33,4.33-4.33h12.83
      c2.39,0,4.33,1.94,4.33,4.33v12.33C296.5,91.06,294.56,93,292.17,93z"/>
    <path class="st4" d="M392.17,93h-12.83c-2.39,0-4.33-1.94-4.33-4.33V76.33c0-2.39,1.94-4.33,4.33-4.33h12.83
      c2.39,0,4.33,1.94,4.33,4.33v12.33C396.5,91.06,394.56,93,392.17,93z"/>
    <path class="st4" d="M22.17,93H9.33C6.94,93,5,91.06,5,88.67V76.33C5,73.94,6.94,72,9.33,72h12.83c2.39,0,4.33,1.94,4.33,4.33
      v12.33C26.5,91.06,24.56,93,22.17,93z"/>
    <rect x="10" y="29" class="st3" width="232" height="12"/>
    <rect x="10" y="47" class="st3" width="186" height="12"/>
    <rect x="13" y="252" class="st3" width="101" height="12"/>
    <rect x="13" y="182" class="st3" width="122" height="12"/>
    <rect x="13" y="322" class="st3" width="149" height="12"/>
    <path class="st4" d="M46.67,226H13.33c-2.39,0-4.33-1.94-4.33-4.33v-8.33c0-2.39,1.94-4.33,4.33-4.33h33.33
      c2.39,0,4.33,1.94,4.33,4.33v8.33C51,224.06,49.06,226,46.67,226z"/>
    <path class="st4" d="M46.67,296.5H13.33c-2.39,0-4.33-1.94-4.33-4.33v-8.33c0-2.39,1.94-4.33,4.33-4.33h33.33
      c2.39,0,4.33,1.94,4.33,4.33v8.33C51,294.56,49.06,296.5,46.67,296.5z"/>
    <rect x="13" y="535" class="st3" width="48" height="12"/>
    <rect x="13" y="573" class="st3" width="22" height="12"/>
    <rect x="13" y="554" class="st3" width="73" height="12"/>
    <path class="st4" d="M83.17,442.5H13.33c-2.39,0-4.33-1.94-4.33-4.33v-8.33c0-2.39,1.94-4.33,4.33-4.33h69.83
      c2.39,0,4.33,1.94,4.33,4.33v8.33C87.5,440.56,85.56,442.5,83.17,442.5z"/>
    <path class="st4" d="M83.17,468.5H13.33c-2.39,0-4.33-1.94-4.33-4.33v-8.33c0-2.39,1.94-4.33,4.33-4.33h69.83
      c2.39,0,4.33,1.94,4.33,4.33v8.33C87.5,466.56,85.56,468.5,83.17,468.5z"/>
    <path class="st4" d="M838.17,93h-12.83c-2.39,0-4.33-1.94-4.33-4.33V76.33c0-2.39,1.94-4.33,4.33-4.33h12.83
      c2.39,0,4.33,1.94,4.33,4.33v12.33C842.5,91.06,840.56,93,838.17,93z"/>
  </g>
  <g id="lines">
    <line class="st5" x1="0" y1="20.5" x2="850" y2="20.5"/>
    <line class="st6" x1="0" y1="65.5" x2="850" y2="65.5"/>
    <line class="st6" x1="0" y1="99.5" x2="850" y2="99.5"/>
    <line class="st6" x1="188.5" y1="99" x2="188.5" y2="600"/>
    <rect x="209.5" y="120.5" class="st7" width="173" height="99"/>
    <rect x="427.5" y="119.5" class="st7" width="173" height="100"/>
    <rect x="646.5" y="119.5" class="st7" width="173" height="100"/>
    <rect x="210.5" y="300.5" class="st7" width="173" height="99"/>
    <rect x="428.5" y="299.5" class="st7" width="173" height="100"/>
    <rect x="647.5" y="299.5" class="st7" width="173" height="100"/>
    <rect x="209.5" y="478.5" class="st7" width="173" height="99"/>
    <rect x="427.5" y="477.5" class="st7" width="173" height="100"/>
    <rect x="646.5" y="477.5" class="st7" width="173" height="100"/>
    <line class="st6" x1="170" y1="198" x2="10" y2="198"/>
    <line class="st6" x1="169.33" y1="267.33" x2="6.67" y2="267.33"/>
    <line class="st6" x1="171.33" y1="336" x2="8" y2="336"/>
    <rect class="st6" width="850" height="600"/>
  </g>
</svg>
